<svg width="12" height="12" viewBox="0 0 12 12" fill="none" xmlns="http://www.w3.org/2000/svg">
<path d="M11.143 5.00421H2.57149L5.39168 1.71177C5.72799 1.32244 5.72999 0.689188 5.3965 0.296573C5.3949 0.294696 5.39329 0.29282 5.39168 0.290944C5.05739 -0.0969812 4.51738 -0.0969812 4.18308 0.290944L0.50586 4.59424C0.18362 4.96762 0.00200897 5.47516 0 6.00522C0.00401795 6.53152 0.186031 7.03484 0.50586 7.40634L4.18308 11.7092C4.51939 12.099 5.06221 12.0966 5.3961 11.704C5.72999 11.3114 5.72799 10.6777 5.39168 10.2879L2.57149 7.00575H11.143C11.6163 7.00575 12 6.55779 12 6.00522C12 5.45265 11.6163 5.00421 11.143 5.00421Z" fill="#554D59"/>
</svg>
