<svg width="33" height="32" viewBox="0 0 33 32" fill="none" xmlns="http://www.w3.org/2000/svg">
<path d="M32.4998 16C32.4998 7.16352 25.3365 0 16.5002 0C7.66387 0 0.500488 7.16352 0.500488 16C0.500488 23.5034 5.66647 29.7997 12.6353 31.529V20.8896H9.33615V16H12.6353V13.8931C12.6353 8.44736 15.0999 5.9232 20.4463 5.9232C21.4601 5.9232 23.2092 6.12224 23.9247 6.32064V10.7526C23.5471 10.713 22.8911 10.6931 22.0764 10.6931C19.4531 10.6931 18.4393 11.687 18.4393 14.2707V16H23.6655L22.7676 20.8896H18.4393V31.8829C26.3617 30.9261 32.4998 24.1805 32.4998 16Z" fill="#0866FF"/>
<path d="M22.7676 20.8896L23.6655 16H18.4393V14.2707C18.4393 11.687 19.4531 10.6931 22.0764 10.6931C22.8911 10.6931 23.5471 10.713 23.9247 10.7526V6.32064C23.2092 6.12224 21.4601 5.9232 20.4463 5.9232C15.0999 5.9232 12.6353 8.44736 12.6353 13.8931V16H9.33615V20.8896H12.6353V31.529C13.873 31.8362 15.1671 32 16.4995 32C17.1555 32 17.8025 31.9597 18.438 31.8829V20.8896H22.7663H22.7676Z" fill="white"/>
</svg>
