<svg width="33" height="32" viewBox="0 0 33 32" fill="none" xmlns="http://www.w3.org/2000/svg">
<path d="M32.4032 9.40338C32.3253 7.70027 32.0547 6.53724 31.6593 5.51964C31.2576 4.45191 30.6279 3.4848 29.814 2.68551C29.0151 1.87164 28.0476 1.24124 26.9799 0.839467C25.9623 0.444444 24.7992 0.174222 23.0961 0.0967111C21.3898 0.0188445 20.8448 0 16.4995 0C12.1543 0 11.6092 0.0188444 9.90289 0.0963556C8.19978 0.174222 7.03676 0.4448 6.01916 0.840178C4.95142 1.24196 3.98431 1.87164 3.18502 2.68551C2.37116 3.48444 1.74076 4.45156 1.33898 5.51929C0.943956 6.53724 0.673734 7.70027 0.596223 9.40302C0.518001 11.1097 0.499512 11.6548 0.499512 16C0.499512 20.3456 0.518001 20.8907 0.596223 22.597C0.673734 24.2997 0.944312 25.4631 1.34005 26.4807C1.74182 27.5481 2.37151 28.5156 3.18538 29.3145C3.98431 30.1284 4.95178 30.7584 6.01951 31.1598C7.03711 31.5556 8.20013 31.8258 9.90324 31.9036C11.6096 31.9815 12.1546 32 16.4999 32C20.8451 32 21.3902 31.9819 23.0965 31.9036C24.7996 31.8258 25.9626 31.5556 26.9802 31.1598C29.1296 30.3289 30.8284 28.6297 31.6593 26.4807C32.0551 25.4628 32.3253 24.2997 32.4032 22.597C32.481 20.8903 32.4995 20.3452 32.4995 16C32.4995 11.6548 32.481 11.1097 32.4032 9.40338ZM29.5232 22.4658C29.452 24.026 29.1914 24.8729 28.9724 25.4368C28.4341 26.8324 27.3312 27.9349 25.936 28.4732C25.3724 28.6923 24.5251 28.9529 22.9649 29.024C21.2782 29.1012 20.7719 29.1172 16.4995 29.1172C12.2268 29.1172 11.7208 29.1012 10.0341 29.024C8.47427 28.9529 7.62698 28.6923 7.06307 28.4732C6.36831 28.2165 5.73969 27.8076 5.22342 27.2761C4.69187 26.7598 4.28298 26.1316 4.02627 25.4364C3.80725 24.8729 3.54662 24.0256 3.47551 22.4654C3.39871 20.7783 3.38236 20.2724 3.38236 16C3.38236 11.7276 3.39871 11.2217 3.47551 9.53458C3.54698 7.9744 3.80725 7.12747 4.02627 6.56356C4.28298 5.86844 4.69187 5.23982 5.22342 4.72356C5.73969 4.192 6.36831 3.78311 7.06342 3.52676C7.62698 3.30738 8.47427 3.04711 10.0344 2.97564C11.7212 2.8992 12.2272 2.88284 16.4995 2.88284C20.7719 2.88284 21.2775 2.8992 22.9646 2.97636C24.5248 3.04747 25.3717 3.30809 25.9356 3.52711C26.6304 3.78382 27.259 4.19271 27.7752 4.72391C28.3068 5.24018 28.7157 5.8688 28.972 6.56391C29.1914 7.12747 29.452 7.97476 29.5232 9.53493C29.6 11.222 29.6163 11.728 29.6163 16.0004C29.6163 20.2727 29.6003 20.7783 29.5232 22.4658Z" fill="url(#paint0_linear_108_219)"/>
<path d="M16.4992 7.78383C11.9616 7.78383 8.28298 11.4624 8.28298 16C8.28298 20.5376 11.9616 24.2162 16.4992 24.2162C21.0371 24.2162 24.7153 20.5376 24.7153 16C24.7153 11.4624 21.0371 7.78383 16.4992 7.78383ZM16.4992 21.3333C13.5541 21.333 11.1662 18.9454 11.1662 16C11.1662 13.0546 13.5537 10.6667 16.4995 10.6667C19.4449 10.667 21.8328 13.0546 21.8328 16C21.8328 18.9454 19.4449 21.3333 16.4992 21.3333Z" fill="url(#paint1_linear_108_219)"/>
<path d="M26.9603 7.4592C26.9603 8.51946 26.1006 9.3792 25.0403 9.3792C23.9797 9.3792 23.1203 8.51946 23.1203 7.4592C23.1203 6.39858 23.98 5.5392 25.0403 5.5392C26.1006 5.5392 26.9603 6.39893 26.9603 7.4592Z" fill="url(#paint2_linear_108_219)"/>
<defs>
<linearGradient id="paint0_linear_108_219" x1="3.18495" y1="29.3145" x2="29.8141" y2="2.68533" gradientUnits="userSpaceOnUse">
<stop stop-color="#FFD600"/>
<stop offset="0.5" stop-color="#FF0100"/>
<stop offset="1" stop-color="#D800B9"/>
</linearGradient>
<linearGradient id="paint1_linear_108_219" x1="5.18623" y1="27.3138" x2="27.8136" y2="4.68638" gradientUnits="userSpaceOnUse">
<stop stop-color="#FF6400"/>
<stop offset="0.5" stop-color="#FF0100"/>
<stop offset="1" stop-color="#FD0056"/>
</linearGradient>
<linearGradient id="paint2_linear_108_219" x1="23.6825" y1="8.81679" x2="26.3979" y2="6.10141" gradientUnits="userSpaceOnUse">
<stop stop-color="#F30072"/>
<stop offset="1" stop-color="#E50097"/>
</linearGradient>
</defs>
</svg>
