<svg width="52" height="48" viewBox="0 0 52 48" fill="none" xmlns="http://www.w3.org/2000/svg">
<g clip-path="url(#clip0_64_64)">
<path d="M17.2829 37.7971C17.0869 37.9129 16.9168 38.0097 16.7372 38.1161C16.6853 38.0452 16.6404 37.9956 16.6073 37.9412C16.0356 37.001 15.223 36.4671 14.1033 36.5569C13.0095 36.6467 12.3103 37.327 11.9228 38.2956C11.4291 39.5311 11.5543 40.7193 12.4827 41.728C13.7088 43.058 15.6577 42.8123 16.5506 41.2367C16.6026 41.1469 16.6498 41.0548 16.7231 40.9272C16.8908 41.0288 17.0609 41.0997 17.1837 41.2201C17.231 41.2674 17.2073 41.4493 17.153 41.5249C16.5365 42.4107 15.6978 42.9305 14.6088 43.0131C12.8678 43.1407 11.2638 41.9454 10.9378 40.2776C10.5976 38.5342 11.6134 36.7837 13.2717 36.2522C14.6773 35.801 16.3309 36.3679 17.1672 37.5892C17.2026 37.6436 17.231 37.7026 17.2829 37.7971Z" fill="#554D59"/>
<path d="M22.6312 40.6272C22.6312 41.9548 21.5587 43.025 20.2358 43.0226C18.9082 43.0179 17.857 41.9525 17.8594 40.613C17.8594 39.283 18.9318 38.2247 20.2666 38.2365C21.5871 38.2483 22.6336 39.3043 22.6312 40.6272ZM18.6578 40.6201C18.6555 41.239 18.8539 41.78 19.3098 42.2076C19.8413 42.7084 20.6067 42.7179 21.1477 42.2383C22.0194 41.4682 22.0879 40.0035 21.2942 39.1531C20.7083 38.5247 19.8177 38.5176 19.2224 39.1389C18.8255 39.5523 18.6625 40.0555 18.6602 40.6201H18.6578Z" fill="#554D59"/>
<path d="M36.4697 41.3005C36.6894 41.3831 36.902 41.4611 37.1241 41.5438C37.0225 41.7871 36.8878 41.9973 36.7248 42.1887C36.0587 42.9659 34.9531 43.2352 34.0058 42.8478C33.0514 42.458 32.4443 41.4824 32.5152 40.4548C32.5861 39.4224 33.3113 38.546 34.3035 38.2909C35.3689 38.0168 36.4863 38.494 37.0036 39.4389C37.0508 39.5264 37.0556 39.602 37.013 39.6894C36.8808 39.9587 36.68 40.1689 36.4461 40.3484C36.0114 40.6792 35.5177 40.8941 35.0074 41.0784C34.6507 41.2083 34.3011 41.3619 33.9538 41.5202C33.8428 41.5698 33.7483 41.6643 33.6538 41.7469C33.6302 41.7658 33.6184 41.8343 33.6326 41.858C34.105 42.595 34.8397 42.7887 35.4799 42.5052C35.9311 42.3044 36.2075 41.9336 36.3941 41.4894C36.4201 41.4304 36.4437 41.3713 36.4721 41.3028L36.4697 41.3005ZM33.4176 41.4375C33.5097 41.3264 33.5853 41.2225 33.6727 41.128C34.0011 40.776 34.4121 40.5611 34.8657 40.4264C35.3594 40.2799 35.8224 40.065 36.2642 39.8027C36.3044 39.7791 36.3445 39.7508 36.3965 39.7153C36.3138 39.5689 36.2477 39.4248 36.1579 39.2948C35.5744 38.4539 34.4925 38.3688 33.8357 39.1011C33.4247 39.5594 33.2546 40.0957 33.2711 40.7004C33.2782 40.9485 33.3231 41.1894 33.4152 41.4351L33.4176 41.4375Z" fill="#554D59"/>
<path d="M31.4545 41.3005C31.6742 41.3831 31.8868 41.4611 32.1089 41.5438C32.0073 41.7871 31.8726 41.9973 31.7096 42.1887C31.0435 42.9659 29.9379 43.2352 28.9906 42.8478C28.0362 42.458 27.4291 41.4824 27.5 40.4548C27.5709 39.4224 28.2961 38.546 29.2883 38.2909C30.3537 38.0168 31.471 38.494 31.9884 39.4389C32.0356 39.5264 32.0404 39.602 31.9978 39.6894C31.8656 39.9587 31.6648 40.1689 31.4309 40.3484C30.9962 40.6792 30.5025 40.8941 29.9922 41.0784C29.6355 41.2083 29.2859 41.3619 28.9386 41.5202C28.8276 41.5698 28.7331 41.6643 28.6386 41.7469C28.615 41.7658 28.6032 41.8343 28.6174 41.858C29.0898 42.595 29.8245 42.7887 30.4647 42.5052C30.9159 42.3044 31.1923 41.9336 31.3789 41.4894C31.4049 41.4304 31.4285 41.3713 31.4569 41.3028L31.4545 41.3005ZM28.4024 41.4375C28.4945 41.3264 28.5701 41.2225 28.6575 41.128C28.9859 40.776 29.3969 40.5611 29.8505 40.4264C30.3442 40.2799 30.8072 40.065 31.249 39.8027C31.2891 39.7791 31.3293 39.7508 31.3813 39.7153C31.2986 39.5689 31.2325 39.4248 31.1427 39.2948C30.5592 38.4539 29.4772 38.3688 28.8205 39.1011C28.4095 39.5594 28.2394 40.0957 28.2559 40.7004C28.263 40.9485 28.3079 41.1894 28.4 41.4351L28.4024 41.4375Z" fill="#554D59"/>
<path d="M27.2141 38.5791C27.1716 38.5436 27.1102 38.5295 27.0275 38.5342C26.8385 38.5413 26.6448 38.5531 26.4582 38.5247C26.3802 38.5129 26.2598 38.4019 26.2574 38.3334C26.2409 38.031 26.2385 37.7239 26.2739 37.4215C26.3283 36.9632 26.5763 36.7459 27.0228 36.7294C27.1078 36.727 27.1716 36.7152 27.2165 36.6774V36.3325C27.1763 36.2971 27.1126 36.2853 27.0322 36.2829C26.0968 36.2451 25.4684 36.8333 25.4613 37.7688C25.4566 38.5673 25.4613 39.3657 25.4613 40.1665C25.4613 41.0217 25.4589 41.8792 25.466 42.7344C25.466 42.8265 25.5109 42.9942 25.5511 43.0013C25.7542 43.0273 25.9716 43.0415 26.1676 42.9942C26.222 42.9801 26.2456 42.7462 26.2456 42.6115C26.2527 41.5083 26.2574 40.4051 26.2456 39.3019C26.2432 39.0374 26.3283 38.9405 26.5881 38.9665C26.7393 38.983 26.8929 38.9665 27.0441 38.9689C27.122 38.9712 27.1811 38.9594 27.2189 38.9216V38.5814L27.2141 38.5791Z" fill="#554D59"/>
<path d="M24.8069 38.5365C24.8069 38.5365 24.7857 38.5318 24.7739 38.5318C24.5754 38.5365 24.3723 38.5507 24.1762 38.5224C24.1006 38.5106 23.9896 38.3995 23.9825 38.3263C23.9589 38.0712 23.966 37.8137 23.9754 37.5562C23.999 37.0223 24.2447 36.7672 24.7739 36.727C24.7857 36.727 24.7951 36.7223 24.8069 36.7199V36.2971C24.8069 36.2971 24.7951 36.29 24.788 36.29C23.8951 36.1837 23.1887 36.8191 23.184 37.7239C23.1817 38.5318 23.184 39.3397 23.184 40.15C23.184 41.0146 23.1817 41.8816 23.1887 42.7462C23.1887 42.836 23.2431 43.0013 23.2856 43.0061C23.4888 43.0273 23.7061 43.0368 23.9022 42.9824C23.9565 42.9683 23.9683 42.7297 23.9707 42.5926C23.9754 41.48 23.9801 40.3673 23.9707 39.2547C23.9707 39.0303 24.0415 38.9429 24.266 38.9618C24.4361 38.9759 24.6109 38.9854 24.7786 38.9547C24.788 38.9547 24.7999 38.9452 24.8117 38.9405V38.5365H24.8069Z" fill="#554D59"/>
<path d="M33.916 33.6395C33.916 33.6395 33.9326 33.6253 33.9397 33.6206C34.4712 33.089 35.1067 32.6544 35.6949 32.1937C35.813 32.1016 35.9854 32.2079 35.9476 32.3544C35.9122 32.4914 35.8697 32.6095 35.8366 32.6662C35.4705 33.3111 35.2531 34.0954 34.7027 34.6198C34.4995 34.8135 34.2302 34.9529 33.9491 34.9387C33.7294 34.9269 33.5263 34.823 33.342 34.7001C31.9034 33.741 31.8467 31.9339 31.96 30.3747C31.9955 29.8739 32.0876 29.3778 32.0545 28.8392C31.953 29.0282 31.8561 29.2196 31.7474 29.4038C31.1143 30.4881 30.6206 31.6504 29.9426 32.7087C29.2741 33.7528 28.3433 35.1584 26.8834 34.986C26.418 34.9316 25.9928 34.7025 25.6526 34.3812C24.6487 33.4387 24.455 31.9835 24.5376 30.6913C24.8235 26.2832 26.522 22.1468 28.7497 18.3789C28.8819 18.1544 29.0284 17.9395 29.1961 17.7434C29.43 17.467 29.7466 17.1717 30.1269 17.1032C30.3891 17.056 30.6868 17.1363 30.8474 17.3489C31.0175 17.5733 31.0033 17.8922 30.9135 18.1592C30.7175 18.7521 30.3891 19.3143 30.1222 19.8766C30.0962 19.9309 30.0442 20.0065 30.0064 20.0159C29.3875 20.186 29.1985 20.7506 28.9882 21.2231C28.1567 23.087 27.4457 25.0123 26.9519 26.9942C26.4653 28.9479 26.0377 30.9842 26.418 32.9969C26.4417 33.1268 26.4818 33.2709 26.5976 33.3371C26.7535 33.4245 26.9425 33.3087 27.0795 33.1953C28.2016 32.2528 28.915 30.937 29.5954 29.666C30.3655 28.2321 31.0954 26.7769 31.7758 25.3005C33.6964 21.1333 35.539 16.9308 37.4288 12.7494C37.7737 11.9841 38.1777 11.2423 38.5722 10.5005C38.8344 10.0092 39.4273 9.74457 39.8502 9.96899C40.325 10.2194 40.3935 10.6848 40.2778 11.1714C40.2305 11.3746 40.1337 11.5659 40.0581 11.7596C38.0076 17.03 35.7138 22.2176 34.4003 27.7478C34.1712 28.714 33.8972 29.6731 33.72 30.6511C33.6302 31.1401 33.5641 31.6338 33.5428 32.1299C33.5239 32.5906 33.505 33.1221 33.6491 33.5662C33.6656 33.6182 33.6916 33.6772 33.7436 33.6985C33.8027 33.7221 33.8664 33.6891 33.9208 33.6465L33.916 33.6395Z" fill="#554D59"/>
<path d="M46.1222 12.2415C45.5009 11.6226 45.4206 10.5383 45.9473 9.83434C46.6395 8.91067 48.0049 8.82327 48.905 8.10276C44.315 7.93976 39.699 8.58231 35.3287 9.99026C34.2444 10.3399 33.1743 10.7367 32.1514 11.2376C31.6624 11.4762 31.1758 11.7336 30.7198 12.0337C30.2993 12.3101 29.8221 12.5652 29.4985 12.9573C29.404 13.0707 29.3237 13.2007 29.2883 13.3448C29.1654 13.8456 29.7229 14.2495 29.704 14.748C29.2079 14.6086 28.7898 14.2141 28.6221 13.7251C28.2441 12.6148 29.2292 11.6297 29.997 10.9753C30.8781 10.2265 31.9104 9.6737 32.9688 9.21778C35.8815 7.96338 39.0376 7.37044 42.1865 6.98302C44.9268 6.64757 47.7238 6.46331 50.4358 6.98538C50.7358 7.04208 51.0429 7.11295 51.2909 7.29248C51.539 7.47202 51.7138 7.78385 51.6429 8.0815C51.5697 8.38624 51.272 8.57995 50.9885 8.71696C49.7365 9.32172 48.286 9.46346 47.0931 10.1745C46.7316 10.3895 46.3915 10.6659 46.1836 11.032C45.9757 11.3982 45.919 11.8683 46.1174 12.2415H46.1222Z" fill="#554D59"/>
<path d="M26.6944 8.50908C26.7984 8.15001 26.9047 7.7744 26.7606 7.40351C26.6897 7.22161 26.5456 7.06806 26.359 7.01137C25.8889 6.86727 25.5298 7.34446 25.3125 7.76022C24.3463 9.59575 23.7911 11.5187 23.1344 13.4865C22.7116 14.7503 22.3856 15.9504 22.0761 17.2449C21.7973 18.4048 21.3391 19.6592 20.7981 20.7246C20.6256 21.0648 20.3422 21.3388 20.0067 21.5207C18.7216 22.2153 16.801 23.1909 15.3458 23.8902C15.2017 23.9587 15.0435 23.8311 15.0813 23.6752C15.9482 20.2215 16.853 16.1795 16.6971 12.8723C16.6309 11.4785 16.4112 10.0399 15.953 8.72878C15.6435 7.84054 14.9939 7.12476 14.0513 6.92396C13.1701 6.73498 12.2347 6.98066 11.4457 7.38225C9.30539 8.47128 8.05336 11.0557 8.21399 13.4085C8.24943 13.9282 8.35573 14.4432 8.55889 14.9251C8.70772 15.2795 9.02191 16.0378 9.47075 16.0567C9.47311 16.0331 9.46603 16.0142 9.45658 15.9929C8.32266 13.7534 8.96758 10.9045 11.0275 9.40912C11.2401 9.25557 11.4645 9.11856 11.7008 9.00517C11.9819 8.86815 12.2772 8.76421 12.5819 8.69334C13.867 8.40041 14.2096 9.71859 14.323 10.7911C14.7718 15.0669 14.0371 19.2175 13.1394 23.3917C13.0851 23.6397 13.0166 23.8854 12.9056 24.1122C12.8725 24.1807 12.83 24.2398 12.7685 24.2847C12.6859 24.3437 12.5819 24.3579 12.4827 24.3697C11.5331 24.4642 10.5716 24.098 9.87943 23.4484C9.80147 23.3752 9.72352 23.2972 9.62666 23.257C9.33137 23.1342 9.34791 23.4649 9.40697 23.6563C9.49674 23.9516 9.73769 24.2351 9.93613 24.4689C10.3802 24.991 10.9448 25.4115 11.5756 25.6808C11.8071 25.78 12.2252 25.8958 12.2984 26.1674C12.3717 26.4391 12.1213 26.8431 12.048 27.0935C11.9205 27.5281 11.7811 27.9581 11.637 28.388C11.063 30.0865 10.385 31.7496 9.81565 33.4505C9.74005 33.6772 9.78966 33.9371 9.97156 34.093C10.2739 34.3529 10.5952 34.1332 10.8102 33.904C11.2732 33.4103 11.5779 32.7914 11.8685 32.1795C12.589 30.6606 13.2646 29.1203 13.893 27.5588C13.9875 27.3226 14.0844 27.084 14.1907 26.8501C14.4718 26.2359 14.9655 25.7422 15.5774 25.4587C15.9719 25.2768 16.3616 25.0902 16.7514 24.906C17.8853 24.3744 19.4067 23.635 20.6776 23.035C20.0965 26.9494 20.1461 30.807 21.3461 34.6269C21.4217 34.8702 21.6698 35.0403 21.9178 34.986C22.2651 34.908 22.2722 34.4852 22.2273 34.1639C21.7572 30.696 21.8729 27.1502 22.5651 23.7201C22.669 23.2051 22.8179 22.6428 23.2525 22.3452C23.484 22.1869 23.8266 22.0121 23.7392 21.7475C23.7037 21.6365 23.5974 21.568 23.5147 21.4877C23.1108 21.0932 23.2384 20.4246 23.3943 19.8813C24.4927 16.0898 25.5912 12.2982 26.6897 8.50672L26.6944 8.50908Z" fill="#554D59"/>
<path d="M6.36666 31.2937L0.654568 25.5839C-0.219491 24.7099 -0.219491 23.2901 0.654568 22.4161L6.3643 16.7063L7.36592 17.708L1.65619 23.4177C1.33492 23.739 1.33492 24.261 1.65619 24.58L7.36592 30.2897L6.3643 31.2913L6.36666 31.2937Z" fill="#554D59"/>
<path d="M30.2922 7.36808L24.5825 1.65835C24.2612 1.33707 23.7392 1.33707 23.4203 1.65835L17.7105 7.36808L16.7089 6.36645L22.4163 0.654362C23.2903 -0.219697 24.7101 -0.219697 25.5841 0.654362L31.2939 6.36409L30.2922 7.36572V7.36808Z" fill="#554D59"/>
<path d="M41.6314 31.2937L40.6298 30.292L46.3395 24.5823C46.6608 24.261 46.6608 23.739 46.3395 23.42L40.6298 17.7103L41.6314 16.7087L47.3411 22.4184C48.2152 23.2925 48.2152 24.7122 47.3411 25.5863L41.6314 31.296V31.2937Z" fill="#554D59"/>
<path d="M23.999 48C23.4014 48 22.8391 47.7661 22.4163 47.3433L20.5453 45.4723L21.5469 44.4707L23.4179 46.3417C23.7392 46.6629 24.2612 46.6629 24.5802 46.3417L26.4511 44.4707L27.4527 45.4723L25.5818 47.3433C25.1589 47.7661 24.5967 48 23.999 48Z" fill="#554D59"/>
</g>
<defs>
<clipPath id="clip0_64_64">
<rect width="51.664" height="48" fill="white"/>
</clipPath>
</defs>
</svg>
