<svg width="33" height="32" viewBox="0 0 33 32" fill="none" xmlns="http://www.w3.org/2000/svg">
<path fill-rule="evenodd" clip-rule="evenodd" d="M32.497 23.8731C32.497 24.0473 32.497 24.428 32.4821 24.7216C32.4681 25.4129 32.4116 26.1026 32.3128 26.7869C32.1982 27.3908 32.0031 27.9767 31.7329 28.5288C31.1398 29.6975 30.1894 30.6468 29.0197 31.2386C28.4674 31.5086 27.8814 31.7036 27.2774 31.8184C26.5977 31.9155 25.9128 31.9712 25.2263 31.9851C24.9326 31.9851 24.5518 32 24.3775 32H8.62894C8.4547 32 8.07387 32 7.78016 31.9851C7.08868 31.9711 6.39872 31.9146 5.71419 31.8159C5.11009 31.7013 4.52408 31.5063 3.97182 31.2361C2.80271 30.6432 1.85318 29.6931 1.26118 28.5238C0.991061 27.9716 0.796007 27.3858 0.681212 26.782C0.584033 26.1025 0.528344 25.4178 0.514446 24.7316C0.514446 24.438 0.499512 24.0572 0.499512 23.883V8.1269C0.499512 7.95272 0.499511 7.57201 0.514446 7.27838C0.52841 6.58712 0.584935 5.89737 0.683703 5.21306C0.798325 4.60916 0.993378 4.02333 1.26366 3.47122C1.85673 2.30248 2.80715 1.35324 3.9768 0.76143C4.52915 0.491396 5.11513 0.296403 5.71918 0.181644C6.39883 0.0844823 7.08377 0.0288105 7.7702 0.0149294C8.06392 0.0149294 8.44475 0 8.61899 0H24.3701C24.5443 0 24.9251 -6.0717e-07 25.2189 0.0149294C25.9103 0.0289081 26.6003 0.0854154 27.2848 0.184134C27.8889 0.29872 28.4749 0.493713 29.0272 0.763914C30.1963 1.3568 31.1458 2.30692 31.7378 3.47621C32.008 4.02838 32.203 4.61418 32.3178 5.21804C32.415 5.89749 32.4707 6.58221 32.4846 7.26843C32.4846 7.56205 32.4995 7.94277 32.4995 8.11695L32.497 23.8731Z" fill="url(#paint0_linear_108_220)"/>
<path fill-rule="evenodd" clip-rule="evenodd" d="M24.9177 7.66656C22.9629 5.70862 20.3626 4.52811 17.6015 4.34508C14.8404 4.16206 12.107 4.98901 9.91068 6.67179C7.7144 8.35457 6.20519 10.7783 5.66436 13.4913C5.12354 16.2042 5.58801 19.0212 6.9712 21.4171L5.35328 27.3219L11.3968 25.7369C13.0688 26.6465 14.942 27.123 16.8455 27.1229C19.1002 27.1226 21.3043 26.4541 23.1791 25.2019C25.0538 23.9496 26.5151 22.1698 27.3783 20.0875C28.2414 18.0051 28.4676 15.7137 28.0283 13.5029C27.589 11.292 26.5039 9.26103 24.9102 7.66656H24.9177ZM16.8505 25.2068C15.1515 25.2053 13.4843 24.7463 12.0241 23.8781L11.6781 23.674L8.0913 24.6146L9.0496 21.1309L8.8231 20.7726C7.70494 18.9937 7.20991 16.8937 7.41585 14.8028C7.62179 12.7119 8.517 10.7487 9.96076 9.22191C11.4045 7.69512 13.3149 6.69132 15.3916 6.36832C17.4683 6.04532 19.5934 6.42145 21.4329 7.43757C23.2724 8.45369 24.722 10.0522 25.5536 11.9817C26.3853 13.9112 26.5519 16.0623 26.0272 18.0968C25.5025 20.1313 24.3164 21.9337 22.6552 23.2208C20.9941 24.5078 18.9521 25.2065 16.8505 25.2068ZM22.0477 18.1126C21.764 17.9708 20.3626 17.2815 20.1013 17.1869C19.8399 17.0924 19.6507 17.0451 19.4591 17.3288C19.2674 17.6124 18.7123 18.2544 18.558 18.446C18.4037 18.6376 18.2245 18.66 17.9407 18.5182C17.1011 18.1836 16.3261 17.7053 15.6507 17.1048C15.0276 16.529 14.4932 15.864 14.0652 15.1316C13.8984 14.8454 14.0477 14.6936 14.1896 14.5493C14.3315 14.405 14.4734 14.2159 14.6177 14.0516C14.7345 13.9076 14.8301 13.7475 14.9015 13.5764C14.9389 13.4978 14.9562 13.4113 14.9519 13.3244C14.9475 13.2375 14.9217 13.1531 14.8766 13.0787C14.8044 12.9369 14.2344 11.5359 13.998 10.9636C13.7615 10.3913 13.5325 10.4834 13.3558 10.4659C13.179 10.4485 12.9998 10.4659 12.8106 10.4659C12.6664 10.4698 12.5245 10.5034 12.3939 10.5646C12.2633 10.6259 12.1467 10.7134 12.0515 10.8218C11.7295 11.127 11.4746 11.4959 11.3032 11.9051C11.1318 12.3142 11.0475 12.7546 11.0558 13.1981C11.0558 14.5991 12.0764 15.9527 12.2182 16.1443C12.3601 16.3359 14.227 19.2099 17.0845 20.4442C17.6153 20.6725 18.1579 20.8727 18.7098 21.0439C19.2912 21.2201 19.9057 21.2585 20.5045 21.1558C21.0521 21.0737 22.1896 20.4666 22.4286 19.8022C22.6675 19.1378 22.6775 18.558 22.5953 18.4485C22.5132 18.339 22.334 18.2395 22.0502 18.1051L22.0477 18.1126Z" fill="white"/>
<defs>
<linearGradient id="paint0_linear_108_220" x1="16.5045" y1="31.99" x2="16.5045" y2="0.00995398" gradientUnits="userSpaceOnUse">
<stop stop-color="#25CF43"/>
<stop offset="1" stop-color="#61FD7D"/>
</linearGradient>
</defs>
</svg>
